<?xml version="1.0" encoding="UTF-8" standalone="no"?>
<svg
   xmlns:dc="http://purl.org/dc/elements/1.1/"
   xmlns:cc="http://creativecommons.org/ns#"
   xmlns:rdf="http://www.w3.org/1999/02/22-rdf-syntax-ns#"
   xmlns:svg="http://www.w3.org/2000/svg"
   xmlns="http://www.w3.org/2000/svg"
   viewBox="0 0 534.35999 220.2"
   height="220.2"
   width="534.35999"
   xml:space="preserve"
   id="svg2"
   version="1.1"><metadata
     id="metadata8"><rdf:RDF><cc:Work
         rdf:about=""><dc:format>image/svg+xml</dc:format><dc:type
           rdf:resource="http://purl.org/dc/dcmitype/StillImage" /></cc:Work></rdf:RDF></metadata><defs
     id="defs6" /><g
     transform="matrix(1.3333333,0,0,-1.3333333,0,220.2)"
     id="g10"><g
       transform="scale(0.1)"
       id="g12"><path
         id="path14"
         style="fill:#154280;fill-opacity:1;fill-rule:nonzero;stroke:none"
         d="M 17.6836,30.3281 H 3986.96 V 0 H 17.6836 v 30.3281" /><path
         id="path16"
         style="fill:#154280;fill-opacity:1;fill-rule:evenodd;stroke:none"
         d="m 2000.67,490.766 404.69,-146.715 h -149.51 l -255.18,106.715 -214.93,-79.852 -130.52,-25.367 345.45,145.219" /><path
         id="path18"
         style="fill:#154280;fill-opacity:1;fill-rule:nonzero;stroke:none"
         d="m 1921.57,821.645 c 0,46.191 37.45,83.64 83.64,83.64 46.2,0 83.64,-37.449 83.64,-83.64 0,-26.567 -12.38,-50.239 -31.69,-65.559 7.4,11.578 13.51,30.793 13.51,45.555 0,41.175 -33.38,74.55 -74.55,74.55 -35.01,0 -66.2,-29.589 -74.21,-62.128 -0.22,2.496 -0.34,5.027 -0.34,7.582" /><path
         id="path20"
         style="fill:#154280;fill-opacity:1;fill-rule:evenodd;stroke:none"
         d="m 1980.17,863.465 24.55,-80.004 24.55,63.637 -24.55,-18.18 -24.55,34.547" /><path
         id="path22"
         style="fill:#154280;fill-opacity:1;fill-rule:evenodd;stroke:none"
         d="M 39.082,303.18 H 33.3633 L 21.2891,120.164 C 19.3828,92.5195 16.8398,87.1172 0,83.3047 v -5.7188 c 9.21484,0 18.1094,1.2735 27.3242,1.2735 9.5313,0 18.7461,-1.2735 27.6446,-1.2735 v 5.7188 c -10.8047,1.2734 -19.6993,8.8984 -19.6993,31.1403 0,8.258 0,22.875 0.6328,31.137 l 6.0391,99.77 h 1.5859 L 135.355,84.5781 214.152,245.035 h 1.27 l 6.355,-112.797 c 0.321,-5.086 0.953,-15.254 0.953,-27.328 0,-11.4373 -2.542,-20.6522 -15.886,-21.6053 v -5.7188 c 7.945,0 17.476,1.2735 26.691,1.2735 11.121,0 20.653,-1.2735 29.867,-1.2735 v 5.7188 c -13.98,2.2266 -15.886,5.0859 -17.16,30.8203 l -9.215,189.055 h -5.398 L 142.66,121.117 39.082,303.18" /><path
         id="path24"
         style="fill:#154280;fill-opacity:1;fill-rule:evenodd;stroke:none"
         d="m 260.969,188.477 c 0,-65.137 48.613,-114.7036 114.703,-114.7036 66.086,0 114.699,49.5666 114.699,114.7036 0,65.132 -48.613,114.703 -114.699,114.703 -66.09,0 -114.703,-49.571 -114.703,-114.703 z m 30.183,0 c 0,58.144 25.102,104.535 84.52,104.535 59.414,0 84.516,-46.391 84.516,-104.535 0,-58.145 -25.102,-104.5356 -84.516,-104.5356 -59.418,0 -84.52,46.3906 -84.52,104.5356" /><path
         id="path26"
         style="fill:#154280;fill-opacity:1;fill-rule:evenodd;stroke:none"
         d="m 533.008,235.5 c 0,13.664 1.269,30.82 1.269,45.438 0,10.167 2.543,10.8 15.25,10.8 36.223,0 55.922,-24.465 55.922,-55.601 0,-32.09 -22.875,-53.063 -57.828,-53.063 -5.719,0 -10.801,1.27 -14.613,1.906 z M 507.59,102.371 c 0,-9.8515 -4.133,-19.0663 -14.938,-19.0663 v -5.7188 c 7.946,0 17.477,1.2735 27.008,1.2735 10.805,0 20.336,-1.2735 28.281,-1.2735 v 5.7188 c -10.804,0 -14.933,9.2148 -14.933,19.0663 v 72.442 c 15.25,-1.586 25.101,-8.895 32.726,-18.11 l 54.332,-66.0897 c 1.27,-1.5899 2.543,-4.1289 2.543,-5.082 0,-0.6368 -1.589,-1.5899 -2.543,-2.2266 v -5.7188 c 8.262,0 16.524,1.2735 24.782,1.2735 8.261,0 16.523,-1.2735 24.785,-1.2735 v 5.7188 c -7.625,2.543 -13.348,5.0859 -20.02,13.0273 l -70.218,81.66 c 27.328,6.988 53.699,27.961 53.699,57.508 0,49.25 -40.989,65.77 -84.836,65.77 -16.84,0 -44.164,-1.907 -59.414,-1.907 v -5.718 c 13.976,0 17.472,-8.258 17.472,-24.782 0,-22.879 1.274,-51.793 1.274,-80.386 v -86.106" /><path
         id="path28"
         style="fill:#154280;fill-opacity:1;fill-rule:evenodd;stroke:none"
         d="m 857.168,136.684 c 0,10.168 4.129,13.347 13.344,13.347 v 5.719 c -8.899,-0.637 -17.793,-1.273 -26.692,-1.273 -8.894,0 -17.793,0.636 -26.687,1.273 v -5.719 c 12.39,-0.636 14.617,-2.226 14.617,-14.301 v -31.136 c 0,-16.2034 -31.457,-20.6526 -43.531,-20.6526 -68.949,0 -109.938,45.4376 -109.938,113.4296 0,55.285 38.766,95.641 94.051,95.641 33.996,0 55.606,-11.758 61.957,-31.137 l 5.719,-0.957 v 37.812 l -9.531,-4.132 c -22.875,6.672 -36.539,8.582 -60.368,8.582 -67.679,0 -122.011,-43.215 -122.011,-113.434 0,-78.48 62.277,-115.9726 133.132,-115.9726 26.688,0 51.153,10.4844 75.938,11.7579 v 51.1527" /><path
         id="path30"
         style="fill:#154280;fill-opacity:1;fill-rule:evenodd;stroke:none"
         d="m 994.516,141.133 12.394,-33.363 c 1.59,-4.446 3.49,-8.5786 3.49,-13.6606 0,-3.8125 -6.99,-7.9414 -11.119,-10.8047 v -5.7188 c 9.539,0 19.069,1.2735 28.599,1.2735 9.53,0 19.06,-1.2735 28.6,-1.2735 v 5.7188 c -15.26,5.7187 -19.71,11.4414 -25.1,26.6913 L 962.426,303.18 h -5.403 L 880.133,109.996 C 874.414,96.0156 872.188,88.3906 856.301,83.3047 v -5.7188 c 9.851,0 18.113,1.2735 26.375,1.2735 7.941,0 16.203,-1.2735 24.144,-1.2735 v 5.7188 c -7.941,2.8633 -13.66,6.9922 -13.66,12.7109 0,3.1758 0,11.1214 2.223,17.1564 l 10.168,27.961 z M 952.895,257.742 990.387,154.16 h -79.75 z" /><path
         id="path32"
         style="fill:#154280;fill-opacity:1;fill-rule:evenodd;stroke:none"
         d="m 1063.91,108.09 c 0,-16.2033 -3.81,-20.6525 -20.02,-24.7853 v -5.7188 c 7.95,0 17.16,1.2735 29.24,1.2735 9.21,0 18.42,-1.2735 28.91,-1.2735 v 5.7188 c -18.43,4.1328 -22.24,8.582 -22.24,41.9413 V 246.305 L 1243.11,77.5859 h 7 V 268.863 c 0,16.203 3.81,20.653 20.96,24.782 v 5.718 c -9.21,0 -18.42,-1.269 -27.64,-1.269 -9.21,0 -18.43,1.269 -30.82,1.269 v -5.718 c 20.66,-4.129 24.47,-8.579 24.47,-64.18 V 124.609 l -136.31,141.075 c -10.48,10.804 -19.7,22.879 -29.87,33.679 h -6.99 V 108.09" /><path
         id="path34"
         style="fill:#154280;fill-opacity:1;fill-rule:evenodd;stroke:none"
         d="m 1498.58,263.145 -1.27,35.585 c -16.52,-0.636 -32.41,4.45 -48.93,4.45 -41.62,0 -77.84,-18.746 -77.84,-64.821 0,-81.972 112.16,-46.707 112.16,-114.066 0,-27.961 -21.93,-40.3516 -47.03,-40.3516 -21.29,0 -46.71,9.5313 -54.01,32.0936 h -5.72 l 1.27,-33.0467 c 19.7,-5.7188 39.4,-9.2149 58.78,-9.2149 39.08,0 68.95,21.6055 68.95,62.9106 0,75.941 -112.16,45.754 -112.16,114.07 0,28.91 24.78,42.258 50.52,42.258 20.01,0 42.89,-9.215 49.56,-29.867 h 5.72" /><path
         id="path36"
         style="fill:#154280;fill-opacity:1;fill-rule:evenodd;stroke:none"
         d="m 1595.66,285.066 0.95,-182.695 c 0,-11.7577 -4.45,-14.9335 -21.92,-19.0663 v -5.7188 c 11.44,0 22.87,1.2735 34.31,1.2735 11.44,0 22.88,-1.2735 34.32,-1.2735 v 5.7188 c -16.53,4.1328 -21.29,7.3086 -21.29,19.0663 l 0.95,182.695 h 44.48 c 20.66,0 27.65,-5.402 33.36,-22.238 h 5.73 l 1.27,40.352 h -1.59 c -5.09,-1.91 -12.71,-3.817 -18.75,-3.817 -26.05,0 -52.1,-1.269 -78.16,-1.269 -26.05,0 -52.11,1.269 -78.16,1.269 -6.04,0 -13.67,1.907 -18.75,3.817 h -1.59 l 1.27,-40.352 h 5.72 c 5.72,16.836 12.71,22.238 33.37,22.238 h 44.48" /><path
         id="path38"
         style="fill:#154280;fill-opacity:1;fill-rule:evenodd;stroke:none"
         d="m 1807.2,141.133 12.39,-33.363 c 1.59,-4.446 3.49,-8.5786 3.49,-13.6606 0,-3.8125 -6.99,-7.9414 -11.12,-10.8047 v -5.7188 c 9.53,0 19.07,1.2735 28.6,1.2735 9.53,0 19.06,-1.2735 28.6,-1.2735 v 5.7188 c -15.26,5.7187 -19.7,11.4414 -25.11,26.6913 l -68.94,193.184 h -5.41 l -76.89,-193.184 c -5.72,-13.9804 -7.94,-21.6054 -23.83,-26.6913 v -5.7188 c 9.85,0 18.11,1.2735 26.38,1.2735 7.94,0 16.2,-1.2735 24.14,-1.2735 v 5.7188 c -7.94,2.8633 -13.66,6.9922 -13.66,12.7109 0,3.1758 0,11.1214 2.22,17.1564 l 10.17,27.961 z m -41.63,116.609 37.5,-103.582 h -79.75 z" /><path
         id="path40"
         style="fill:#154280;fill-opacity:1;fill-rule:evenodd;stroke:none"
         d="m 1915.48,285.066 0.95,-182.695 c 0,-11.7577 -4.45,-14.9335 -21.93,-19.0663 v -5.7188 c 11.44,0 22.88,1.2735 34.32,1.2735 11.44,0 22.88,-1.2735 34.32,-1.2735 v 5.7188 c -16.53,4.1328 -21.29,7.3086 -21.29,19.0663 l 0.95,182.695 h 44.48 c 20.66,0 27.65,-5.402 33.36,-22.238 h 5.72 l 1.28,40.352 h -1.59 c -5.09,-1.91 -12.71,-3.817 -18.75,-3.817 -26.05,0 -52.11,-1.269 -78.16,-1.269 -26.05,0 -52.11,1.269 -78.16,1.269 -6.04,0 -13.67,1.907 -18.75,3.817 h -1.59 l 1.27,-40.352 h 5.72 c 5.72,16.836 12.71,22.238 33.36,22.238 h 44.49" /><path
         id="path42"
         style="fill:#154280;fill-opacity:1;fill-rule:evenodd;stroke:none"
         d="m 2174.36,303.18 h -5.72 c -1.59,-3.18 -3.5,-5.086 -10.48,-5.086 H 2031.7 v -5.719 c 16.52,-0.637 17.79,-3.18 17.79,-101.676 v -88.328 c 0,-13.9804 -4.77,-18.4296 -17.79,-19.0663 v -4.4453 h 102.31 c 20.33,0 31.13,-0.6367 42.26,-2.8594 l 4.76,34.633 -5.08,0.953 C 2170.23,98.875 2161.33,89.6602 2141,89.6602 h -66.09 v 96.2738 h 55.6 c 17.79,0 23.83,-4.129 27.33,-15.887 h 5.72 c -0.32,6.988 -0.96,14.297 -0.96,21.605 0,7.309 0.64,14.618 0.96,21.289 h -5.72 c -3.5,-12.074 -9.54,-16.203 -27.33,-16.203 h -55.6 v 32.09 c 0,18.746 0.63,44.485 2.54,58.465 h 49.57 c 26.69,0 38.44,-8.262 41.62,-22.563 h 5.72 v 38.45" /><path
         id="path44"
         style="fill:#154280;fill-opacity:1;fill-rule:evenodd;stroke:none"
         d="m 2454.17,120.48 c -12.39,-20.015 -45.44,-30.1831 -70.22,-30.1831 -25.42,0 -60.37,15.8871 -60.37,66.0901 l 0.96,118.195 c 0,9.852 3.17,19.063 15.25,19.063 v 5.718 c -9.22,0 -18.75,-1.269 -29.56,-1.269 -9.84,0 -19.37,1.269 -29.54,1.269 v -5.718 c 12.07,0 16.52,-9.211 16.52,-19.063 l 0.95,-119.469 c 0,-51.472 32.41,-81.3396 79.43,-81.3396 29.87,0 54.02,15.25 75.95,30.1876 V 88.3906 c 0,-3.8125 -1.28,-6.6718 -3.18,-8.5781 v -2.2266 c 7.94,0 15.88,1.2735 23.83,1.2735 7.94,0 15.88,-1.2735 23.83,-1.2735 v 5.7188 c -10.81,0 -18.43,5.7187 -18.43,19.0663 l 0.95,172.211 c 0,9.852 3.18,19.063 13.98,19.063 v 5.718 c -7.94,0 -17.47,-1.269 -28.28,-1.269 -9.53,0 -19.06,1.269 -28.91,1.269 v -5.718 c 12.71,0 15.88,-9.211 15.88,-19.063 l 0.96,-154.102" /><path
         id="path46"
         style="fill:#154280;fill-opacity:1;fill-rule:evenodd;stroke:none"
         d="m 2532.87,108.09 c 0,-16.2033 -3.82,-20.6525 -20.02,-24.7853 v -5.7188 c 7.94,0 17.16,1.2735 29.23,1.2735 9.22,0 18.43,-1.2735 28.92,-1.2735 v 5.7188 c -18.43,4.1328 -22.24,8.582 -22.24,41.9413 V 246.305 L 2712.07,77.5859 h 6.99 V 268.863 c 0,16.203 3.82,20.653 20.97,24.782 v 5.718 c -9.21,0 -18.43,-1.269 -27.64,-1.269 -9.21,0 -18.43,1.269 -30.82,1.269 v -5.718 c 20.65,-4.129 24.47,-8.579 24.47,-64.18 V 124.609 l -136.31,141.075 c -10.49,10.804 -19.7,22.879 -29.87,33.679 h -6.99 V 108.09" /><path
         id="path48"
         style="fill:#154280;fill-opacity:1;fill-rule:evenodd;stroke:none"
         d="m 2815.23,299.363 c -9.53,0 -19.06,-1.269 -29.86,-1.269 -9.53,0 -19.07,1.269 -28.92,1.269 v -5.718 c 12.4,0 15.89,-9.211 15.89,-19.063 l 1.59,-172.211 c 0,-9.8515 -5.08,-19.0663 -13.98,-19.0663 v -5.7188 c 6.35,0 15.89,1.2735 25.42,1.2735 10.8,0 20.33,-1.2735 27.01,-1.2735 v 5.7188 c -9.54,0 -14.62,9.2148 -14.62,19.0663 l 1.59,172.211 c 0,9.852 3.49,19.063 15.88,19.063 v 5.718" /><path
         id="path50"
         style="fill:#154280;fill-opacity:1;fill-rule:evenodd;stroke:none"
         d="m 2936.19,73.7734 85.47,202.0786 c 5.08,12.074 8.57,16.523 19.7,17.793 v 5.718 c -9.54,0 -18.75,-1.269 -27.97,-1.269 -9.21,0 -18.42,1.269 -27.64,1.269 v -5.718 c 10.8,-1.586 13.66,-4.129 13.66,-13.981 0,-1.906 -0.63,-11.754 -4.12,-20.969 l -57.83,-144.57 -56.88,161.094 c -2.54,7.304 -3.49,10.801 -3.49,12.707 0,3.179 8.58,5.086 11.75,5.719 v 5.718 c -9.85,0 -19.7,-1.269 -29.54,-1.269 -9.85,0 -19.71,1.269 -29.55,1.269 v -5.718 c 8.89,-1.27 10.8,-2.223 15.88,-14.934 l 81.98,-204.9376 h 8.58" /><path
         id="path52"
         style="fill:#154280;fill-opacity:1;fill-rule:evenodd;stroke:none"
         d="m 3188.35,303.18 h -5.72 c -1.59,-3.18 -3.5,-5.086 -10.49,-5.086 h -126.46 v -5.719 c 16.53,-0.637 17.8,-3.18 17.8,-101.676 v -88.328 c 0,-13.9804 -4.77,-18.4296 -17.8,-19.0663 v -4.4453 h 102.31 c 20.34,0 31.14,-0.6367 42.26,-2.8594 l 4.77,34.633 -5.09,0.953 c -5.72,-12.711 -14.61,-21.9258 -34.95,-21.9258 h -66.09 v 96.2738 h 55.61 c 17.79,0 23.83,-4.129 27.32,-15.887 h 5.72 c -0.31,6.988 -0.95,14.297 -0.95,21.605 0,7.309 0.64,14.618 0.95,21.289 h -5.72 c -3.49,-12.074 -9.53,-16.203 -27.32,-16.203 h -55.61 v 32.09 c 0,18.746 0.64,44.485 2.55,58.465 H 3141 c 26.69,0 38.45,-8.262 41.63,-22.563 h 5.72 v 38.45" /><path
         id="path54"
         style="fill:#154280;fill-opacity:1;fill-rule:evenodd;stroke:none"
         d="m 3252.71,235.5 c 0,13.664 1.27,30.82 1.27,45.438 0,10.167 2.55,10.8 15.26,10.8 36.22,0 55.92,-24.465 55.92,-55.601 0,-32.09 -22.88,-53.063 -57.83,-53.063 -5.72,0 -10.8,1.27 -14.62,1.906 z M 3227.3,102.371 c 0,-9.8515 -4.14,-19.0663 -14.94,-19.0663 v -5.7188 c 7.94,0 17.48,1.2735 27.01,1.2735 10.8,0 20.33,-1.2735 28.28,-1.2735 v 5.7188 c -10.81,0 -14.94,9.2148 -14.94,19.0663 v 72.442 c 15.25,-1.586 25.11,-8.895 32.73,-18.11 l 54.33,-66.0897 c 1.28,-1.5899 2.55,-4.1289 2.55,-5.082 0,-0.6368 -1.59,-1.5899 -2.55,-2.2266 v -5.7188 c 8.27,0 16.53,1.2735 24.79,1.2735 8.26,0 16.52,-1.2735 24.78,-1.2735 v 5.7188 c -7.63,2.543 -13.34,5.0859 -20.02,13.0273 l -70.21,81.66 c 27.32,6.988 53.69,27.961 53.69,57.508 0,49.25 -40.99,65.77 -84.84,65.77 -16.83,0 -44.16,-1.907 -59.41,-1.907 v -5.718 c 13.98,0 17.47,-8.258 17.47,-24.782 0,-22.879 1.28,-51.793 1.28,-80.386 v -86.106" /><path
         id="path56"
         style="fill:#154280;fill-opacity:1;fill-rule:evenodd;stroke:none"
         d="m 3516.62,263.145 -1.27,35.585 c -16.52,-0.636 -32.41,4.45 -48.93,4.45 -41.62,0 -77.85,-18.746 -77.85,-64.821 0,-81.972 112.16,-46.707 112.16,-114.066 0,-27.961 -21.92,-40.3516 -47.02,-40.3516 -21.29,0 -46.71,9.5313 -54.01,32.0936 h -5.72 l 1.27,-33.0467 c 19.7,-5.7188 39.39,-9.2149 58.78,-9.2149 39.08,0 68.95,21.6055 68.95,62.9106 0,75.941 -112.16,45.754 -112.16,114.07 0,28.91 24.78,42.258 50.52,42.258 20.01,0 42.89,-9.215 49.56,-29.867 h 5.72" /><path
         id="path58"
         style="fill:#154280;fill-opacity:1;fill-rule:evenodd;stroke:none"
         d="m 3603.84,299.363 c -9.53,0 -19.06,-1.269 -29.86,-1.269 -9.53,0 -19.07,1.269 -28.92,1.269 v -5.718 c 12.4,0 15.89,-9.211 15.89,-19.063 l 1.59,-172.211 c 0,-9.8515 -5.08,-19.0663 -13.98,-19.0663 v -5.7188 c 6.35,0 15.89,1.2735 25.42,1.2735 10.8,0 20.33,-1.2735 27,-1.2735 v 5.7188 c -9.53,0 -14.61,9.2148 -14.61,19.0663 l 1.59,172.211 c 0,9.852 3.49,19.063 15.88,19.063 v 5.718" /><path
         id="path60"
         style="fill:#154280;fill-opacity:1;fill-rule:evenodd;stroke:none"
         d="m 3700.33,285.066 0.95,-182.695 c 0,-11.7577 -4.44,-14.9335 -21.92,-19.0663 v -5.7188 c 11.44,0 22.87,1.2735 34.32,1.2735 11.43,0 22.87,-1.2735 34.31,-1.2735 v 5.7188 c -16.52,4.1328 -21.29,7.3086 -21.29,19.0663 l 0.96,182.695 h 44.48 c 20.65,0 27.64,-5.402 33.36,-22.238 h 5.72 l 1.27,40.352 h -1.59 c -5.08,-1.91 -12.71,-3.817 -18.74,-3.817 -26.06,0 -52.11,-1.269 -78.17,-1.269 -26.05,0 -52.11,1.269 -78.16,1.269 -6.04,0 -13.66,1.907 -18.75,3.817 h -1.58 l 1.27,-40.352 h 5.71 c 5.72,16.836 12.72,22.238 33.37,22.238 h 44.48" /><path
         id="path62"
         style="fill:#154280;fill-opacity:1;fill-rule:evenodd;stroke:none"
         d="m 3894.08,102.371 c 0,-9.8515 -4.13,-19.0663 -16.2,-19.0663 v -5.7188 c 9.21,0 18.74,1.2735 28.27,1.2735 10.81,0 20.34,-1.2735 28.92,-1.2735 v 5.7188 c -11.44,0 -15.57,9.2148 -15.57,19.0663 v 83.563 l 29.86,47.343 c 12.08,19.063 39.41,54.649 55.29,60.368 v 5.718 c -8.26,0 -16.52,-1.269 -24.78,-1.269 -8.26,0 -16.53,1.269 -24.78,1.269 v -5.718 c 5.08,-0.633 10.48,-1.907 10.48,-8.258 0,-2.227 -2.23,-7.946 -7.31,-15.571 l -47.34,-75.621 -46.07,77.528 c -2.86,5.082 -4.13,9.847 -4.13,11.754 0,5.718 4.13,8.582 11.44,10.168 v 5.718 c -9.86,0 -19.7,-1.269 -29.55,-1.269 -9.86,0 -19.7,1.269 -29.55,1.269 v -5.718 c 9.21,-3.813 17.79,-11.122 24.78,-22.875 l 56.24,-90.872 v -77.527" /><path
         id="path64"
         style="fill:#154280;fill-opacity:1;fill-rule:nonzero;stroke:none"
         d="m 1825.67,705.914 -25.92,218.219 -21.82,-21.82 0.04,-195.692 z M 1958.2,1567 c 0,0 14.08,12.91 23.08,30.91 17.22,34.43 20.25,53.62 20.25,53.62 l -1.15,-72.86 29.42,-9.7 c 0,0 -15.22,-8.31 -29.52,-11.2 v -15.81 c 0.27,0.01 -24.69,-12.7 -37.27,-32.82 -11.6,-18.56 -9.54,-54.39 -9.54,-54.39 h 73.78 c 0,0 0.14,17.61 0,24.32 -0.13,6.77 -3.61,25.86 -5.15,33.99 -5.03,13.07 -10.05,22.53 -10.05,22.53 0,0 39.76,-30.74 42.77,-81.09 l 0.36,-6.07 23.43,-16.34 c -0.46,5.62 -1.13,12.91 -2.15,22.03 -3.17,28.53 -9.49,38.34 -9.49,38.34 0,0 18.95,-10.21 32.37,-58.84 2.46,-8.93 3.57,-16.27 4.02,-21.84 l 18.64,-31.65 -74.11,46.96 h -94.43 l -40.78,-42.75 41.53,21.92 h 93.05 l 73.41,-49.72 -26.21,-43.38 -0.49,38.46 -53.3,29.35 -78.93,-1.81 -51.94,-35.54 v -168.07 l 19.35,12.5 h 13.28 v 93.77 c 0,0 0.61,4.72 -1.19,9.03 -0.53,7.21 -6.54,12.9 -13.88,12.9 2.51,5.97 8.17,12.16 17.7,12.16 18.44,0 19.1,-20.31 19.1,-20.31 l 0.53,-107.55 h 36.27 v 118.4 c 0,0 0.45,3.22 -0.47,6.83 -0.48,8.52 -7.54,15.27 -16.17,15.27 l -1.85,-0.1 c 3.64,6.43 10.18,13.38 21.5,13.38 21.08,0 21.83,-21.08 21.83,-21.08 l 0.65,-132.7 h 33.23 l -0.01,93.42 c 0,0 0.4,3.45 -0.47,7.16 0.05,8.78 -6.02,14.95 -13.57,15.11 2.91,6.01 7.95,12.17 16.4,12.17 16.47,0 17.05,-20.52 17.05,-20.52 l 0.52,-119.94 46.95,-50.78 -64.48,34.33 -120.34,-8.69 -46.12,-31.02 v -14.13 l 30.19,15.81 h 145.9 l 71.52,-52.2 -72.32,24.52 -132.52,-10.06 -58.74,-31.02 v -12.54 h 323.76 l -63.14,-18.95 -313.24,-19.23 9.1,-11.9 374.56,-3.637 55.37,-63.64 -42.65,-47.274 -1.81,50.91 -21.82,34.016 -352.75,-22.277 v -232.09 l 304.44,-4.504 17.4,226.676 14.05,-227.141 113.22,-1.676 -68.79,-20.496 -483.96,-17.684 -1.82,-19.175 h 610.94 l -56.37,-101.821 -3.63,75.594 -594.57,-19.226 V 465.227 l -4,-2.043 302.19,114.777 627.3,-232.738 -80.13,-1.172 -542.64,193.414 -465.71,-192.242 h -151.57 l 268.68,102.054 -26.85,194.321 h 64.5 l -8.14,66.449 61.22,-0.906 -13.64,183.964 -27.57,35.833 96.43,112.732 h 40.95 l -4.42,33.5 26.75,14.01 -6.15,53.07 25.3,16.34 -6.67,157.63 -12.53,8.61 -0.55,61.41 28.77,25.84 c 0,0 -0.98,48.06 18.74,79.05 24.26,38.14 49.74,44.84 65.26,51.15 v 20.3 c -8.36,2.91 -15.25,6.42 -15.25,6.42" /><path
         id="path66"
         style="fill:#154280;fill-opacity:1;fill-rule:evenodd;stroke:none"
         d="m 3954.47,106.652 h 7.62 v 7.801 h -24.44 v -7.801 h 7.61 V 79.0195 h 9.21 v 27.6325" /><path
         id="path68"
         style="fill:#154280;fill-opacity:1;fill-rule:evenodd;stroke:none"
         d="m 3963.29,79.0195 h 9.17 l 2.96,20.3985 h 0.09 l 8.13,-20.3985 h 3.67 l 8.5,20.3985 h 0.1 l 2.58,-20.3985 h 9.21 l -5.35,35.4335 h -9.17 l -7.61,-18.9374 -7.19,18.9374 h -9.07 l -6.02,-35.4335" /></g></g></svg>